<?xml version="1.0" standalone="no"?>
<!DOCTYPE svg PUBLIC "-//W3C//DTD SVG 1.1//EN" "http://www.w3.org/Graphics/SVG/1.1/DTD/svg11.dtd">
<svg id="mappes-logo-white" viewBox="0 0 907 93" version="1.1"
	xmlns="http://www.w3.org/2000/svg" xmlns:xlink="http://www.w3.org/1999/xlink" xml:space="preserve">
	<path d="M 687.5 69.5 L 687.5 90.5 L 620.5 90.5 L 620.5 69.5 L 687.5 69.5 ZM 687.5 35.5 L 687.5 56.5 L 620.5 56.5 L 620.5 35.5 L 687.5 35.5 ZM 898.7813 11.5938 C 898.8125 11.6563 900.875 6.5313 901.5 4.5 L 906.5 4.5 C 906.5 7.5 906.5 10.5 906.5 19.5 L 903.5 19.5 C 903.4688 19.375 902.9063 14.2188 902.625 11.5938 C 902.6563 11.6563 900.4375 19.5 900.5 19.5 L 897.5 19.5 C 897.5313 19.5313 894.5313 11.5 894.5 11.5 C 894.0938 14 894.5 11.5313 893.5 19.5 L 890.5 19.5 C 890.5 9.5 891.5 7.5 890.5 4.5 L 895.9688 4.5 C 896 4.5625 898.7813 11.6563 898.7813 11.5938 ZM 888.5 4.5 L 888.4861 8.4652 C 888.5234 8.5125 884.5302 8.5012 884.5 8.5 C 884.5 11.5 884.5 15.5 884.5 19.5 L 881.5 19.5 C 881.5 16.5 881.3655 12.6369 881.0778 8.5012 C 881.0801 8.5742 877.5348 8.5963 877.4814 8.5012 L 877.5 4.5 L 888.5 4.5 ZM 687.5 2.5 L 687.5 23.5 L 620.5 23.5 L 620.5 2.5 L 687.5 2.5 ZM 520.5 2.5 L 475.5 1.5 L 475.5 89.5 L 497.5 89.5 L 497.5 69.5 L 519.5 69.5 C 537.5 69.5 548.5 50.5 548.5 35.5 C 548.5 23.5 542.5 4.5 520.5 2.5 ZM 516.5 23.5 C 521.5 23.5 524.5 32.5 524.5 34.5 C 524.5 40.5 520.5 47.5 514.5 47.5 L 498.5 47.5 L 498.5 23.5 L 516.5 23.5 ZM 375.5 2.5 L 329.5 1.5 L 329.5 89.5 L 352.5 89.5 L 352.5 69.5 L 374.5 69.5 C 392.5 69.5 402.5 50.5 402.5 35.5 C 402.5 22.5 398.5 7.5 375.5 2.5 ZM 370.5 23.5 C 377.5 25.5 378.5 29.5 378.5 34.5 C 378.5 40.5 375.5 47.5 368.5 47.5 L 353.5 47.5 L 353.5 23.5 L 370.5 23.5 ZM 223.5 1.5 L 201.5 1.5 L 166.5 86.5 L 166.5 89.5 L 189.5 89.5 C 191.5 85.5 193.5 80.5 195.5 76.5 L 229.5 76.5 C 231.5 80.5 233.5 85.5 235.5 89.5 L 259.5 89.5 L 223.5 1.5 ZM 220.5 55.5 L 204.5 55.5 C 207.5 48.5 210.5 40.5 212.5 33.5 L 220.5 55.5 ZM 22.5 1.5 L 47.5 55.5 L 73.5 1.5 L 95.5 1.5 L 95.5 89.5 L 72.5 89.5 L 72.5 50.5 C 72.5 50.8333 56.3333 86.5 56.5 86.5 L 38.5 86.5 C 38.3333 86.8333 22.6667 51 22.5 50.8333 C 22.5 50.7083 22.5 89.5 22.5 89.5 L -0.5 89.5 L -0.5 1.5 L 22.5 1.5 ZM 830.5 26.5 L 830.5 29.5 L 808.5 29.5 C 806.5 20.5 800.5 19.5 794.5 19.5 C 790.5 19.5 783.5 20.5 783.5 24.5 C 783.5 32.5 831.5 35.5 831.5 65.5 C 831.5 85.5 808.5 92.5 795.5 92.5 C 785.5 92.5 758.5 85.5 758.5 69.5 L 758.5 63.5 L 780.5 63.5 C 781.5 65.5 781.5 67.5 784.5 68.5 C 787.5 70.5 793.5 72.5 795.5 72.5 C 798.5 72.5 806.5 69.5 806.5 65.5 C 806.5 56.5 759.5 57.5 759.5 26.5 C 759.5 4.5 779.5 -0.5 793.5 -0.5 C 808.5 -0.5 828.5 4.5 830.5 26.5 Z" fill="#ffffff"/>
</svg>