<?xml version="1.0" standalone="no"?>
<!DOCTYPE svg PUBLIC "-//W3C//DTD SVG 1.1//EN" "http://www.w3.org/Graphics/SVG/1.1/DTD/svg11.dtd" >
<svg xmlns="http://www.w3.org/2000/svg">
<metadata>Generated by IcoMoon</metadata>
<defs>
<font id="mappes-icon" horiz-adv-x="1024">
<font-face units-per-em="1024" ascent="960" descent="-64" />
<missing-glyph horiz-adv-x="1024" />
<glyph unicode="&#x20;" horiz-adv-x="512" d="" />
<glyph unicode="&#xe900;" glyph-name="search-medium" d="M855.084 523.995c0.171-4.242 0.269-9.223 0.269-14.225 0-75.707-22.352-146.194-60.817-205.22l0.886 1.45c-9.578-15.25-8.508-23.651 3.959-35.905 61.696-60.572 122.589-121.946 183.536-183.268 34.514-34.727 36.333-79.728 5.030-111.62-32.105-32.694-77.374-30.714-113.225 4.923-60.091 59.662-120.769 118.736-179.897 179.361-14.769 15.143-24.775 15.625-42.807 5.35-196.378-117.024-445.515-60.037-567.997 132.756-85.614 134.522-93.64 277.818-20.119 419.617 76.624 147.684 202.745 224.683 369.372 226.771 217.62 2.729 393.291-152.982 421.543-369.211 2.14-16.694 0.267-33.871 0.267-50.78zM704.51 528.223c-4.495 150.627-126.976 269.524-272.093 264.174-155.657-5.725-266.635-124.408-262.568-281.35 3.425-133.772 123.445-261.123 282.313-253.686 138.695 6.474 256.521 130.615 252.348 270.862z" />
<glyph unicode="&#xe901;" glyph-name="close-medium" d="M645.44 448l200.14 200.14c24.56 24.56 24.56 64.38 0 88.96l-44.48 44.48c-24.56 24.56-64.38 24.56-88.96 0l-200.14-200.14-200.14 200.14c-24.56 24.56-64.38 24.56-88.96 0l-44.48-44.48c-24.56-24.56-24.56-64.38 0-88.96l200.14-200.14-200.14-200.14c-24.56-24.56-24.56-64.38 0-88.96l44.48-44.48c24.56-24.56 64.4-24.56 88.96 0l200.14 200.14 200.14-200.14c24.56-24.56 64.4-24.56 88.96 0l44.48 44.48c24.56 24.56 24.56 64.38 0 88.96l-200.14 200.14z" />
<glyph unicode="&#xe902;" glyph-name="envelope-medium" d="M928 832h-832c-53.020 0-96-42.98-96-96v-576c0-53.020 42.98-96 96-96h832c53.020 0 96 42.98 96 96v576c0 53.020-42.98 96-96 96zM928 736v-81.61c-44.844-36.518-116.336-93.302-269.174-212.98-33.682-26.494-100.402-90.144-146.826-89.402-46.416-0.75-113.158 62.918-146.826 89.402-152.814 119.66-224.324 176.456-269.174 212.98v81.61h832zM96 160v371.204c45.828-36.502 110.818-87.724 209.876-165.292 43.714-34.41 120.268-110.372 206.124-109.91 85.434-0.462 161.018 74.398 206.106 109.894 99.056 77.566 164.064 128.802 209.894 165.306v-371.202h-832z" />
<glyph unicode="&#xe903;" glyph-name="clip" d="M124.915 706.539c3.896-55.504 28.651-96.922 65.513-133.664q217.639-216.8 434.259-434.079c26.133-26.133 51.488-53.106 78.64-77.921 36.863-33.985 80.019-49.15 129.469-32.307 57.062 19.54 80.618 92.426 47.951 150.927-12.141 20.554-26.141 38.273-42.198 53.888l-0.059 0.057q-176.94 178.139-355.619 355.439c-12.407 11.988-27.512 26.014-43.396 29.37-14.805 3.177-38.061-1.738-47.052-11.988s-9.71-33.146-6.653-49.090c2.338-11.988 15.225-22.777 24.935-32.607q122.576-123.295 245.75-245.75c27.332-27.332 27.212-32.847 0-60.419-25.414-25.414-33.206-25.534-58.501 0q-129.828 128.509-258.937 257.858c-58.201 58.141-60.838 140.317-6.773 194.982 52.147 52.686 135.283 51.428 193.543-4.855s113.225-112.805 169.748-169.268c71.927-71.927 144.333-143.854 215.781-216.26 55.564-56.223 81.637-123.535 63.955-201.995-29.37-130.547-178.619-184.852-295.26-106.692-34.405 23.077-63.535 54.425-93.145 83.915q-233.763 232.504-466.326 466.027c-102.496 102.616-103.215 264.571-1.199 365.329 99.799 98.6 260.136 96.502 360.953-4.795q195.761-196.181 391.822-392.122c25.414-25.414 25.055-31.708-1.798-58.321-25.654-25.414-34.345-25.894-59.16-1.019-128.989 129.469-257.379 259.596-386.787 388.645-87.391 87.331-216.98 72.466-273.203-32.007-13.606-24.575-17.982-54.065-26.253-81.277z" />
<glyph unicode="&#xe904;" glyph-name="arrow-up" d="M5.547 210.005c0-8.619 3.413-17.408 9.984-24.021 13.184-13.184 34.816-13.184 48 0l451.797 451.797 445.184-445.184c13.184-13.184 34.816-13.184 48 0s13.184 34.816 0 48l-469.205 469.419c-13.184 13.184-34.816 13.184-48 0l-475.819-475.819c-6.784-6.784-9.984-15.403-9.984-24.192z" />
<glyph unicode="&#xe905;" glyph-name="arrow-up-circle" d="M1024 448c0 282.795-229.248 512-512 512s-512-229.205-512-512c0-282.752 229.205-512 512-512s512 229.248 512 512zM63.019 448c0 247.040 201.984 448 448.981 448s448-200.96 448-448-200.96-448-448-448-448.981 200.96-448.981 448zM544.341 223.659v360.448l115.755-115.755c12.501-12.501 32.768-12.501 45.269 0s12.501 32.768 0 45.227l-194.005 189.013-194.005-189.013c-6.272-6.272-9.387-14.421-9.387-22.613s3.115-16.384 9.387-22.613c12.501-12.501 32.768-12.501 45.227 0l117.76 117.76v-362.453c0-17.664 14.336-32 32-32s32 14.336 32 32z" />
<glyph unicode="&#xe906;" glyph-name="arrow-down" d="M5.547 685.995c0 8.619 3.413 17.408 9.984 24.021 13.184 13.184 34.816 13.184 48 0l451.797-451.797 445.184 445.184c13.184 13.184 34.816 13.184 48 0s13.184-34.816 0-48l-469.205-469.419c-13.184-13.184-34.816-13.184-48 0l-475.819 475.819c-6.784 6.784-9.984 15.403-9.984 24.192z" />
<glyph unicode="&#xe907;" glyph-name="arrow-down-circle" d="M0 448c0-282.795 229.248-512 512-512s512 229.205 512 512c0 282.752-229.205 512-512 512s-512-229.248-512-512zM961.024 448c0-247.040-201.984-448-449.024-448s-448 200.96-448 448 200.96 448 448 448 449.024-200.96 449.024-448zM479.659 672.341v-360.448l-115.755 115.755c-12.501 12.501-32.768 12.501-45.227 0s-12.501-32.768 0-45.269l194.005-189.013 194.005 189.013c6.272 6.272 9.387 14.421 9.387 22.613s-3.115 16.384-9.387 22.613c-12.501 12.501-32.768 12.501-45.227 0l-117.76-117.76v362.453c0 17.664-14.336 32-32 32s-32-14.336-32-32z" />
<glyph unicode="&#xe908;" glyph-name="arrow-left" d="M752.256 959.531c8.704 0 17.579-3.413 24.235-10.112 13.312-13.312 13.312-35.157 0-48.469l-456.235-456.448 449.579-449.579c13.312-13.312 13.312-35.157 0-48.469s-35.157-13.312-48.469 0l-473.813 473.813c-13.312 13.312-13.312 35.157 0 48.469l480.512 480.683c6.656 6.656 15.573 10.112 24.235 10.112z" />
<glyph unicode="&#xe909;" glyph-name="arrow-left-circle" d="M512 960c-282.795 0-512-229.248-512-512s229.205-512 512-512c282.752 0 512 229.205 512 512s-229.248 512-512 512zM512-1.024c-247.040 0-448 201.984-448 449.024s200.96 448 448 448 448-200.96 448-448-200.96-449.024-448-449.024zM736.341 480.341h-360.448l115.755 115.755c12.501 12.501 12.501 32.768 0 45.227s-32.768 12.501-45.227 0l-189.013-194.005 189.013-194.005c6.272-6.272 14.421-9.387 22.613-9.387s16.384 3.115 22.613 9.387c12.501 12.501 12.501 32.768 0 45.269l-117.76 117.76h362.453c17.664 0 32 14.336 32 32s-14.336 32-32 32z" />
<glyph unicode="&#xe90a;" glyph-name="arrow-right" d="M271.744-63.531c-8.704 0-17.579 3.413-24.235 10.112-13.312 13.312-13.312 35.157 0 48.469l456.235 456.448-449.579 449.579c-13.312 13.312-13.312 35.157 0 48.469s35.157 13.312 48.469 0l473.813-473.813c13.312-13.312 13.312-35.157 0-48.469l-480.512-480.683c-6.656-6.656-15.531-10.112-24.235-10.112z" />
<glyph unicode="&#xe90b;" glyph-name="arrow-right-circle" d="M512 960c-282.752 0-512-229.248-512-512s229.248-512 512-512c282.795 0 512 229.205 512 512s-229.205 512-512 512zM512-1.024c-247.040 0-448 201.984-448 449.024s200.96 448 448 448 448-200.96 448-448-200.96-449.024-448-449.024zM532.352 641.365c-12.501-12.501-12.501-32.768 0-45.269l115.755-115.755h-360.448c-17.664 0-32-14.336-32-32s14.336-32 32-32h362.453l-117.76-117.76c-12.501-12.501-12.501-32.768 0-45.269 6.272-6.272 14.421-9.387 22.613-9.387s16.384 3.115 22.613 9.387l189.013 194.005-189.013 194.005c-12.501 12.501-32.768 12.501-45.269 0z" />
<glyph unicode="&#xe90c;" glyph-name="linkedin" d="M896 896h-768.2c-35.2 0-63.8-29-63.8-64.6v-766.8c0-35.6 28.6-64.6 63.8-64.6h768.2c35.2 0 64 29 64 64.6v766.8c0 35.6-28.8 64.6-64 64.6zM334.8 128h-132.8v427.6h133v-427.6zM268.4 614c-42.6 0-77 34.6-77 77s34.4 77 77 77c42.4 0 77-34.6 77-77 0-42.6-34.4-77-77-77zM832.6 128h-132.8v208c0 49.6-1 113.4-69 113.4-69.2 0-79.8-54-79.8-109.8v-211.6h-132.8v427.6h127.4v-58.4h1.8c17.8 33.6 61.2 69 125.8 69 134.4 0 159.4-88.6 159.4-203.8v-234.4z" />
<glyph unicode="&#xe90d;" glyph-name="rocket" d="M969.115 960c57.259 0.396 56.016 0.396 55.677-58.051-1.3-193.258-85.465-347.174-223.781-475.824-10.344-9.609-20.405-19.501-30.975-28.828-77.665-68.282-77.326-68.282-80.265-173.474-1.13-40.415-2.996-80.887-7.292-121.076-2.12-12.737-9.19-23.514-19.127-30.481l-0.148-0.099c-73.482-44.259-147.699-86.483-221.237-130.007-16.957-10.118-28.262-6.161-42.507 5.37-30.58 24.475-42.393 50.024-24.984 89.365 15.827 35.837 23.571 75.234 36.176 112.654 5.37 15.996 4.183 27.358-8.874 39.963q-73.934 71.391-145.834 145.438c-6.268 7.709-15.751 12.595-26.376 12.595-4.894 0-9.545-1.036-13.747-2.902l0.216 0.086c-45.559-14.866-92.079-26.962-137.298-42.676-39.172-13.679-50.476 20.914-70.769 38.267-16.336 13.905-3.731 29.223 4.183 42.902 41.659 71.56 82.865 143.346 125.767 214.172 7.023 10.081 17.799 17.129 30.263 19.127l0.261 0.034c66.473 5.652 133.172 9.609 199.871 11.701 22.158 0.735 35.667 9.722 50.42 24.701 63.364 63.986 124.806 130.741 193.258 189.075 101.801 86.709 225.929 115.197 357.123 117.967zM827.238 820.893c-36.063 0.396-62.855-25.549-62.742-60.82-0.002-0.204-0.004-0.444-0.004-0.685 0-33.060 26.8-59.86 59.86-59.86 0.319 0 0.638 0.003 0.956 0.007l-0.048-0.001c0.336-0.007 0.733-0.011 1.13-0.011 33.502 0 60.661 27.159 60.661 60.661 0 33.105-26.518 60.016-59.472 60.65l-0.059 0.001z" />
<glyph unicode="&#xe90e;" glyph-name="flag" d="M1023.838 562.868c0-71.826-0.479-143.652 0-215.478 0.266-22.133-7.981-36.338-27.72-46.607-63.845-33.359-128.861-62.781-202.177-69.166-6.424-0.683-13.879-1.073-21.424-1.073-33.228 0-64.691 7.559-92.763 21.050l1.286-0.557c-33.572 15.961-66.825 32.933-101.568 45.703-88.639 32.561-174.936 13.567-259.265-17.93-43.226-17.206-78.105-33.57-111.936-51.638l5.953 2.902c-36.285-18.143-61.93-4.044-61.983 36.179 0 140.939 0 281.984-0.372 422.923 0 19.845 5.906 34.37 23.198 44.053 88 49.48 179.512 89.65 281.984 94.012 5.492 0.274 11.926 0.429 18.396 0.429 71.228 0 138.043-18.892 195.709-51.937l-1.925 1.016c86.883-49.108 164.934-27.294 244.049 14.631 17.239 9.151 33.838 19.366 51.183 28.304 31.923 16.44 59.004 0.426 59.269-36.073 0.532-73.582 0.107-147.164 0.107-220.745zM227.419 321.372c11.386 4.522 20.165 7.767 28.783 11.439 64.697 27.772 131.522 47.884 201.858 53.684 77.626 6.598 150.516-12.663 216.542-51.235 68.74-40.063 136.097-37.722 206.061-8.459 14.738 6.119 28.996 13.461 44 18.834 19.26 6.81 26.070 18.249 25.804 39.638-1.277 103.748-0.532 207.498-0.639 311.246 0 8.406-0.958 16.759-1.703 28.624-17.451-7.874-31.657-14.418-45.969-20.644-83.318-36.338-165.413-46.129-250.061 0-46.666 26.502-101.815 43.753-160.593 47.817l-1.202 0.067c-88.266 5.587-166.796-25.113-243.729-63.26-15.961-7.874-21.281-17.291-21.281-34.742 0.798-101.94 0.372-203.933 0.426-305.873 0.266-7.767 1.064-15.536 1.703-27.135zM110.848 379.206v-345.829c0-38.414-1.436-40.116-34.476-40.329-36.233 0-39.85 3.298-39.85 41.978 0 234.1 0 468.199-0.692 702.299-0.77 14.981-6.389 28.519-15.303 39.212l0.086-0.107c-26.921 31.923-28.039 74.486 0 103.429 13.481 14.235 32.516 23.094 53.62 23.094 19.098 0 36.501-7.255 49.605-19.158l-0.060 0.054c30.752-27.72 35.168-74.859 5.587-104.44-15.961-15.961-18.994-31.604-18.887-51.715 0.639-116.251 0.372-232.344 0.372-348.49z" />
<glyph unicode="&#xe90f;" glyph-name="check-box" d="M843.294 612.984h60.235v-616.749h-843.294v843.294h505.555v-60.235h-445.32v-722.824h722.824v556.514zM292.382 469.323l-42.647-42.647 206.848-206.848 457.005 693.429-50.296 33.19-416.346-631.748-154.564 154.624z" />
<glyph unicode="&#xe910;" glyph-name="share" d="M409.299 153.088c-66.861 62.464-105.231 150.709-105.231 242.206 0 182.694 148.661 331.294 331.294 331.294h175.405l-159.383 159.383 42.586 42.586 232.147-232.147-232.147-232.147-42.586 42.586 159.383 159.383h-175.405c-149.444 0-271.059-121.615-271.059-271.059 0-75.957 30.6-146.312 86.076-198.174l-41.080-43.912zM966.656 416.075v-389.722c0-16.565-13.553-30.118-30.118-30.118h-843.294c-16.565 0-30.118 13.553-30.118 30.118v390.024h-60.235v-390.024c0-49.815 40.538-90.353 90.353-90.353h843.294c49.815 0 90.353 40.538 90.353 90.353v389.722h-60.235z" />
<glyph unicode="&#xe911;" glyph-name="cloud-uplod" d="M320.992 564.475c-33.768 6.7-65.194 18.025-96.619 18.131-61.92 0-112.926-50.75-117.549-112.926-0.826-19.426-9.851-36.592-23.687-48.23l-0.101-0.085c-48.417-44.469-64.825-100.048-43.481-162.743 21.922-64.253 69.449-101.549 136.985-105.866 61.189-3.947 122.802-1.606 184.202-2.807 7.478 0 19.426-3.529 21.451-8.521 5.555-14.078-4.053-20.776-17.503-20.776-69.971 1.14-140.257-1.974-209.699 5.452-72.252 7.683-121.451 53.45-144.146 121.968-23.845 71.533-8.105 136.044 44.62 191.526 9.994 10.547 17.166 23.845 20.267 38.639l0.092 0.522c16.569 97.601 110.643 158.283 204.613 129.293 17.92-5.51 25.298-1.77 33.972 14.393 55.638 103.268 144.146 155.89 260.294 152.774 117.398-3.272 202.586-62.8 253.031-169.237 5.309-13.472 16.562-23.599 30.434-27.254l0.317-0.072c102.749-30.436 168.717-123.16 165.396-230.791-3.325-106.126-76.201-200.771-179.889-219.155-60.619-10.807-123.941-6.184-186.123-7.219-5.555 0-11.271 9.456-16.93 14.543 6.649 4.832 13.192 13.508 19.999 13.762 44.937 1.77 90.072-0.419 135.062 2.596 114.276 7.744 193.085 84.408 197.394 197.811 3.483 89.241-48.622 175.939-158.747 203.367-14.965 3.736-22.802 9.503-28.516 24.78-39.006 103.89-131.266 166.221-242.432 165.812-108.512-0.463-199.059-64.723-237.911-168.82-1.667-4.417-3.277-7.992-5.064-11.467l0.285 0.604zM489.916 424.325q-48.826-49.502-97.662-98.696c-11.672-12.942-23.784-24.827-36.574-35.928l-0.511-0.439c-5.973-4.728-16.358-3.795-24.78-5.191 1.095 9.139-1.245 21.403 3.795 26.852 28.1 30.494 58.442 58.954 87.269 88.824s56.621 60.156 91.627 97.601c20.306-23.845 35.481-43.794 52.831-61.552 39.272-40.152 79.785-79.167 119.472-118.855 8.828-8.886 22.904-19.060 9.139-31.998s-23.218 1.606-32.209 10.385q-55.11 54.858-110.074 110.020c-5.821 5.762-11.999 11.222-22.437 20.776-0.829-14.7-1.71-22.859-1.71-31.169 0-77.919 0-155.833 0-233.492 0.242-2.363 0.378-5.105 0.378-7.873 0-6.414-0.747-12.656-2.158-18.648l0.113 0.547c-2.025-5.868-9.456-14.078-14.078-13.867s-12.674 7.894-14.754 13.82c-2.702 7.789-1.299 17.094-1.299 25.973q0 129.497 0 259.048z" />
<glyph unicode="&#xe912;" glyph-name="link" d="M497.343 378.538l-47.658 46.759c-41.862-15.699-78.774-34.548-117.486-42.932-54.467-11.703-103.982 6.808-144.101 45.352-46.646 45.014-92.616 90.028-137.236 137.123-31.018 31.985-50.139 75.661-50.139 123.803 0 48.736 19.596 92.896 51.338 125.029l-0.018-0.018c34.436 35.73 69.828 70.728 106.233 104.32 62.682 57.449 172.74 54.579 236.322-6.302q69.941-67.071 137.067-137.18c31.059-32.361 50.185-76.383 50.185-124.871 0-42.464-14.667-81.502-39.213-112.324l0.282 0.366c-4.502-5.627-8.89-11.76-15.474-20.481l52.835-46.027c33.76 14.010 67.071 32.297 102.857 41.862 54.298 14.517 104.939-1.294 145.789-38.599 49.796-45.407 98.468-92.448 144.044-142.075 72.36-78.774 67.971-180.055-7.709-256.521-29.653-29.99-59.306-59.981-89.522-89.409-31.957-30.747-75.467-49.685-123.402-49.685-48.7 0-92.834 19.548-124.984 51.225l0.022-0.021c-41.919 41.582-83.557 83.5-125.364 125.195-74.836 74.667-79.28 173.528-11.76 254.947 2.026 2.813 3.938 6.020 7.090 10.466zM356.674 519.994c-30.046 30.216-69.266 63.639-27.12 107.808 45.014 46.927 80.068 6.189 112.535-24.083 28.134 31.791 29.934 62.569 3.827 89.634q-64.651 66.733-131.384 131.271c-10.728 10.472-25.413 16.932-41.607 16.932-16.558 0-31.54-6.754-42.339-17.659l-0.005-0.005q-48.053-45.014-93.91-92.897c-24.139-25.208-24.589-57.956-0.338-83.22q65.214-67.859 133.072-133.016c25.939-25.095 57.168-22.507 87.102 5.233zM669.239 376.569c30.665-32.354 68.589-66.283 22.507-112.535-26.165-26.334-50.247-19.075-108.033 26.952-29.428-25.433-32.241-58.743-4.67-87.496 42.2-43.945 85.47-86.821 129.077-129.415 25.433-24.814 60.318-25.939 86.146-1.856 32.803 30.722 64.369 62.795 95.316 95.654 9.854 10.352 15.916 24.393 15.916 39.849 0 15.254-5.905 29.13-15.554 39.465l0.031-0.034c-45.014 46.477-90.366 92.448-137.067 137.123-24.758 23.182-57.561 19.637-83.839-7.709z" />
<glyph unicode="&#xe913;" glyph-name="face-smile" d="M512 960c-282.323 0-512-229.677-512-512s229.677-512 512-512 512 229.677 512 512-229.677 512-512 512zM512-3.765c-249.133 0-451.765 202.632-451.765 451.765s202.632 451.765 451.765 451.765 451.765-202.632 451.765-451.765-202.632-451.765-451.765-451.765zM783.059 417.882c0-149.444-121.615-271.059-271.059-271.059s-271.059 121.615-271.059 271.059c0 16.625 13.493 30.118 30.118 30.118s30.118-13.493 30.118-30.118c0-116.254 94.569-210.824 210.824-210.824s210.824 94.569 210.824 210.824c0 16.625 13.493 30.118 30.118 30.118s30.118-13.493 30.118-30.118zM271.059 628.706c0 33.25 26.985 60.235 60.235 60.235s60.235-26.985 60.235-60.235-26.985-60.235-60.235-60.235-60.235 26.985-60.235 60.235zM632.471 628.706c0 33.25 26.985 60.235 60.235 60.235s60.235-26.985 60.235-60.235-26.985-60.235-60.235-60.235-60.235 26.985-60.235 60.235z" />
<glyph unicode="&#xe914;" glyph-name="plus" d="M1008.001 414.933h-462.934v-462.934h-66.133v462.934h-462.934v66.133h462.934v462.934h66.133v-462.934h462.934v-66.133z" />
<glyph unicode="&#xe915;" glyph-name="star-o" horiz-adv-x="1152" d="M1056.2 617l-292.2 42.6-130.6 264.8c-23.4 47.2-91.2 47.8-114.8 0l-130.6-264.8-292.2-42.6c-52.4-7.6-73.4-72.2-35.4-109.2l211.4-206-50-291c-9-52.6 46.4-92 92.8-67.4l261.4 137.4 261.4-137.4c46.4-24.4 101.8 14.8 92.8 67.4l-50 291 211.4 206c38 37 17 101.6-35.4 109.2zM777.2 335.4l47.4-276.8-248.6 130.6-248.6-130.6 47.4 276.8-201.2 196 278 40.4 124.4 252 124.4-252 278-40.4-201.2-196z" />
<glyph unicode="&#xe916;" glyph-name="star" horiz-adv-x="1152" d="M518.6 924.4l-130.6-264.8-292.2-42.6c-52.4-7.6-73.4-72.2-35.4-109.2l211.4-206-50-291c-9-52.6 46.4-92 92.8-67.4l261.4 137.4 261.4-137.4c46.4-24.4 101.8 14.8 92.8 67.4l-50 291 211.4 206c38 37 17 101.6-35.4 109.2l-292.2 42.6-130.6 264.8c-23.4 47.2-91.2 47.8-114.8 0z" />
<glyph unicode="&#xe917;" glyph-name="image" d="M928 832h-832c-53.020 0-96-42.98-96-96v-576c0-53.020 42.98-96 96-96h832c53.020 0 96 42.98 96 96v576c0 53.020-42.98 96-96 96zM916 160h-808c-6.627 0-12 5.373-12 12v0 552c0 6.627 5.373 12 12 12v0h808c6.627 0 12-5.373 12-12v0-552c0-6.627-5.373-12-12-12v0zM256 656c-44.182 0-80-35.818-80-80s35.818-80 80-80 80 35.818 80 80-35.818 80-80 80zM192 256h640v160l-175.030 175.030c-9.372 9.372-24.568 9.372-33.942 0l-239.028-239.030-79.030 79.030c-9.372 9.372-24.568 9.372-33.942 0l-79.028-79.030v-96z" />
<glyph unicode="&#xe918;" glyph-name="control-play" d="M180.706 797.847v-699.814l699.814 351.593-699.814 348.22zM240.941 700.506l504.892-251.181-504.892-253.651v504.832z" />
<glyph unicode="&#xe919;" glyph-name="power-off" d="M800 851.8c126-90 208-237.2 208-403.8 0-273.6-221.6-495.4-495-496-273-0.6-496.6 222-497 495.2-0.2 166.6 81.8 314.2 207.6 404.4 23.4 16.6 56 9.6 70-15.4l31.6-56.2c11.8-21 6.2-47.6-13.2-62-83-61.6-136-159.2-136-269.8-0.2-184.6 149-336.2 336-336.2 183.2 0 337.2 148.4 336 338.2-0.6 103.6-49.4 203.6-136.2 268-19.4 14.4-24.8 41-13 61.8l31.6 56.2c14 24.8 46.4 32.2 69.6 15.6zM592 432v480c0 26.6-21.4 48-48 48h-64c-26.6 0-48-21.4-48-48v-480c0-26.6 21.4-48 48-48h64c26.6 0 48 21.4 48 48z" />
<glyph unicode="&#xe91a;" glyph-name="settings" d="M512 600.275c-83.004 0-150.588-67.584-150.588-150.588s67.584-150.588 150.588-150.588 150.588 67.584 150.588 150.588-67.584 150.588-150.588 150.588zM512 359.334c-49.815 0-90.353 40.538-90.353 90.353s40.538 90.353 90.353 90.353 90.353-40.538 90.353-90.353-40.538-90.353-90.353-90.353zM1020.386 391.017c2.229 19.336 3.614 38.852 3.614 58.669s-1.385 39.334-3.614 58.669l-155.889 46.863c-7.168 24.215-16.745 47.405-28.552 69.21l77.041 143.179c-24.456 30.72-52.344 58.609-83.125 83.125l-143.179-77.101c-21.865 11.806-45.056 21.323-69.271 28.552l-46.743 155.889c-19.275 2.229-38.792 3.614-58.669 3.614s-39.394-1.385-58.669-3.614l-46.743-155.889c-24.275-7.168-47.526-16.745-69.271-28.612l-143.179 77.101c-30.78-24.456-58.669-52.344-83.064-83.125l77.041-143.059c-11.806-21.805-21.323-45.056-28.552-69.271l-155.949-46.863c-2.229-19.275-3.614-38.792-3.614-58.669s1.385-39.394 3.614-58.669l155.889-46.743c7.228-24.275 16.745-47.526 28.552-69.331l-77.041-143.119c24.456-30.78 52.344-58.669 83.125-83.125l143.179 77.041c21.805-11.806 45.056-21.323 69.271-28.552l46.743-155.889c19.336-2.229 38.852-3.614 58.669-3.614s39.394 1.385 58.669 3.614l46.743 155.889c24.215 7.228 47.465 16.745 69.271 28.552l143.119-77.041c30.78 24.516 58.669 52.405 83.125 83.185l-76.981 143.119c11.806 21.805 21.323 45.056 28.552 69.271l155.889 46.743zM816.068 392.644l-9.276-31.202c-6.024-20.299-14.035-39.755-23.853-57.766l-15.42-28.612 15.36-28.612 57.344-106.616c-5.963-6.325-12.107-12.469-18.432-18.432l-135.108 72.824-28.612-15.42c-18.131-9.818-37.587-17.769-57.826-23.853l-31.202-9.276-9.336-31.202-34.876-116.375c-4.337-0.12-8.614-0.181-12.83-0.181s-8.493 0.060-12.83 0.181l-34.876 116.375-9.336 31.202-31.202 9.276c-20.239 6.024-39.695 14.035-57.766 23.853l-28.612 15.42-135.228-72.704c-6.264 5.963-12.469 12.107-18.432 18.432l72.764 135.168-15.42 28.612c-9.758 18.071-17.769 37.527-23.853 57.826l-9.216 31.142-147.516 44.213c-0.181 4.337-0.241 8.614-0.241 12.77 0 4.216 0.060 8.493 0.241 12.83l147.456 44.213 9.276 31.202c6.024 20.299 14.035 39.755 23.853 57.766l15.42 28.612-72.764 135.228c5.963 6.264 12.107 12.469 18.372 18.432l135.349-72.885 28.672 15.601c17.89 9.758 37.286 17.769 57.585 23.793l31.202 9.276 9.336 31.202 34.876 116.375c4.397 0.060 8.674 0.12 12.89 0.12s8.493-0.060 12.83-0.181l34.876-116.375 9.336-31.202 31.202-9.276c20.179-6.024 39.695-14.035 57.826-23.853l28.612-15.36 135.168 72.764c6.264-5.963 12.469-12.107 18.432-18.432l-57.404-106.616-15.36-28.612 15.48-28.612c9.818-18.071 17.769-37.466 23.793-57.645l9.276-31.202 31.202-9.336 116.375-34.997c0.060-4.337 0.12-8.614 0.12-12.83s-0.060-8.493-0.241-12.83l-147.456-44.213z" />
<glyph unicode="&#xe91b;" glyph-name="email" d="M0 839.529v-783.059h1024v783.059h-1024zM511.639 368.67l-415.383 410.624h832.452l-417.069-410.624zM346.654 447.036l-286.419-282.022v565.188l286.419-283.166zM389.481 404.691l122.037-120.651 120.23 118.423 289.129-285.756h-823.838l292.442 287.985zM674.696 444.687l289.069 284.612v-570.248l-289.069 285.636z" />
<glyph unicode="&#xe91c;" glyph-name="user" d="M1024-33.16c-3.795 161.852-167.334 301.116-392.794 337.86v82.763c29.636 28.491 50.718 72.704 64.512 110.411 19.998 9.999 37.587 32.286 47.827 62.223 14.336 41.442 8.794 79.691-12.408 98.123 1.687 14.336 2.771 28.973 0.904 43.55-4.759 39.936 3.915 62.524 11.686 82.402 6.385 16.685 13.794 35.599 6.385 56.922-26.624 76.68-104.026 118.904-217.931 118.904l-15.902-0.301c-79.089-2.831-102.822-36.141-118.724-67.162-1.988-3.735-4.638-8.794-4.638-9.096-103.123-9.216-102.219-94.509-101.436-163.057l0.181-22.227c0-12.348 0.542-25.239 1.566-38.49-25.6-18.071-30.359-60.536-10.782-104.629 11.144-24.998 27.226-43.912 45.116-53.73 14.637-40.599 37.647-88.546 71.017-118.362v-77.282c-228.774-35.479-394.782-175.104-398.577-338.824l-0.723-30.84h1025.385l-0.663 30.84zM63.488-3.765c23.612 126.133 172.213 230.159 368.76 253.229l26.564 3.132v160.587l-13.011 9.035c-23.672 16.384-47.646 57.043-65.656 111.496l-5 16.926-17.709 3.072c-3.192 1.144-12.529 9.216-19.878 25.781-4.518 10.12-6.264 18.793-6.746 24.998l30.72-8.614-5.783 45.116c-2.53 19.878-3.855 39.213-3.855 57.224l-0.181 22.889c-0.904 80.776 3.072 98.424 46.562 102.34 32.828 2.891 45.297 27.046 52.766 41.502 9.035 17.589 16.866 32.708 67.464 34.575l13.673 0.241c49.935 0 137.276-10.18 160.768-77.222 0-2.59-3.132-10.662-5.421-16.565-8.734-22.528-21.926-56.561-15.3-111.616 1.446-11.324-0.422-25.54-2.409-40.659l-5.361-48.489 26.564 2.891c0.482-6.264-0.241-16.203-4.518-28.431-5.843-17.408-14.577-26.383-14.276-27.347h-21.685l-6.867-20.6c-17.047-51.381-39.153-90.172-60.777-106.496l-11.927-9.035v-164.201l26.383-3.313c193.416-24.154 339.787-127.88 363.219-252.506h-897.084z" />
<glyph unicode="&#xe91d;" glyph-name="search" d="M1000.147 4.186l-311.597 311.597c58.729 68.488 94.509 157.274 94.509 254.374 0 215.883-175.646 391.529-391.529 391.529-104.568 0-202.933-40.719-276.962-114.628-73.909-73.969-114.628-172.333-114.568-276.902 0-215.883 175.646-391.529 391.529-391.529 97.099 0 185.946 35.78 254.434 94.509l311.597-311.597 42.586 42.647zM391.529 238.863c-182.633 0-331.294 148.6-331.294 331.294-0.060 88.546 34.394 171.731 96.979 234.255 62.524 62.584 145.769 97.039 234.315 97.039 182.633 0 331.294-148.6 331.294-331.294 0-182.633-148.661-331.294-331.294-331.294z" />
<glyph unicode="&#xe91e;" glyph-name="thumbs-up" d="M932.54 386.62c17.54 29.7 27.46 61.38 27.46 99.68 0 88.030-74.436 171.16-171.64 171.16h-72.96c9.84 25.62 17.7 56.26 17.7 93.080 0 145.588-75.38 209.46-190.54 209.46-123.214 0-116.186-189.866-143.52-217.2-45.494-45.494-99.23-132.894-137.52-166.8h-197.52c-35.346 0-64-28.654-64-64v-480c0-35.346 28.654-64 64-64h128c29.786 0 54.816 20.348 61.956 47.9 89.018-2.002 150.12-79.88 355.604-79.88 14.44 0 30.44-0.020 44.44-0.020 154.234 0 223.972 78.846 225.88 190.66 26.638 36.85 40.598 86.244 34.68 133.98 19.708 36.904 27.328 80.686 17.98 125.98zM809.040 278.96c25.12-42.26 2.52-98.82-27.88-115.14 15.4-97.56-35.216-131.8-106.24-131.8h-75.64c-143.278 0-236.058 75.64-343.28 75.64v372.34h21.84c56.72 0 135.96 141.78 189.080 194.92 56.72 56.72 37.82 151.26 75.64 189.080 94.54 0 94.54-65.96 94.54-113.46 0-78.34-56.72-113.44-56.72-189.080h207.98c42.22 0 75.46-37.82 75.64-75.64 0.18-37.8-25.64-75.62-44.54-75.62 26.978-29.11 32.742-90.472-10.42-131.24zM176 96c0-26.51-21.49-48-48-48s-48 21.49-48 48 21.49 48 48 48 48-21.49 48-48z" />
<glyph unicode="&#xe91f;" glyph-name="share-alt" d="M906.368 5.589h-841.6v647.381h260.565l65.451 63.061-1.664 1.664h-324.352c-35.755 0-64.725-28.971-64.725-64.725v-647.381c0-35.755 28.971-64.725 64.725-64.725h841.6c35.755 0 64.725 28.971 64.725 64.725v506.453l-64.725-61.781v-444.672zM267.349 264.533h65.237c45.397 257.451 269.611 453.163 540.075 453.163 11.349 0 22.101-0.085 32.981-0.171l-118.613-118.571c-12.587-12.629-12.587-33.109 0-45.781 6.315-6.315 14.635-9.472 22.912-9.472s16.512 3.157 22.869 9.472l191.189 196.224-191.189 196.267c-12.629 12.629-33.109 12.629-45.781 0-12.587-12.629-12.587-33.109 0-45.781l117.504-117.504c-10.155 0-20.181 0.043-30.549 0.043-306.56 0-559.957-224.512-606.635-517.931z" />
<glyph unicode="&#xe920;" glyph-name="speech" d="M960 896.427h-896c-35.328 0-64-28.672-64-64v-577.493c0-35.328 28.672-64 64-64h127.531v-159.317c0-12.928 7.765-24.533 19.627-29.525 4.011-1.664 8.235-2.475 12.373-2.475 8.277 0 16.341 3.2 22.443 9.173l185.045 182.144h529.024c35.328 0 64 28.672 64 64v577.493c0 35.328-28.672 64-64 64zM960 254.933h-555.221l-149.248-146.901v146.901h-191.531v577.493h896v-577.493zM224 511.019h576c17.664 0 32 14.336 32 32s-14.336 32-32 32h-576c-17.664 0-32-14.336-32-32s14.336-32 32-32zM224 639.019h576c17.664 0 32 14.336 32 32s-14.336 32-32 32h-576c-17.664 0-32-14.336-32-32s14.336-32 32-32zM224 383.019h384c17.664 0 32 14.336 32 32s-14.336 32-32 32h-384c-17.664 0-32-14.336-32-32s14.336-32 32-32z" />
<glyph unicode="&#xe921;" glyph-name="plus-medium" d="M896.001 544h-288.001v288.001c0 35.34-28.66 64-64 64h-64c-35.34 0-64-28.66-64-64v-288.001h-288.001c-35.34 0-64-28.66-64-64v-64c0-35.34 28.66-64 64-64h288.001v-288.001c0-35.34 28.66-64 64-64h64c35.34 0 64 28.66 64 64v288.001h288.001c35.34 0 64 28.66 64 64v64c0 35.34-28.66 64-64 64z" />
<glyph unicode="&#xe922;" glyph-name="align-left" d="M640 872v-80c0-17.674-14.326-32-32-32h-512c-17.674 0-32 14.326-32 32v80c0 17.674 14.326 32 32 32h512c17.674 0 32-14.326 32-32zM64 616v-80c0-17.674 14.326-32 32-32h832c17.674 0 32 14.326 32 32v80c0 17.674-14.326 32-32 32h-832c-17.674 0-32-14.326-32-32zM96-8h832c17.674 0 32 14.326 32 32v80c0 17.674-14.326 32-32 32h-832c-17.674 0-32-14.326-32-32v-80c0-17.674 14.326-32 32-32zM608 392h-512c-17.674 0-32-14.326-32-32v-80c0-17.674 14.326-32 32-32h512c17.674 0 32 14.326 32 32v80c0 17.674-14.326 32-32 32z" />
<glyph unicode="&#xe923;" glyph-name="camera" d="M1024 672v-576c0-53-43-96-96-96h-832c-53 0-96 43-96 96v576c0 53 43 96 96 96h176l24.6 65.8c14 37.4 49.8 62.2 89.8 62.2h251c40 0 75.8-24.8 89.8-62.2l24.8-65.8h176c53 0 96-43 96-96zM752 384c0 132.4-107.6 240-240 240s-240-107.6-240-240 107.6-240 240-240 240 107.6 240 240zM688 384c0-97-79-176-176-176s-176 79-176 176 79 176 176 176 176-79 176-176z" />
<glyph unicode="&#xe924;" glyph-name="chevron-up" d="M545.941 698.953l388.686-388.686c18.746-18.746 18.746-49.138 0-67.882l-45.334-45.334c-18.714-18.714-49.044-18.75-67.802-0.080l-309.492 308.040-309.49-308.042c-18.758-18.67-49.088-18.634-67.802 0.080l-45.334 45.334c-18.746 18.746-18.746 49.138 0 67.882l388.686 388.686c18.744 18.746 49.136 18.746 67.882 0.002z" />
<glyph unicode="&#xe925;" glyph-name="chevron-down" horiz-adv-x="896" d="M414.058 197.048l-388.686 388.688c-18.746 18.746-18.746 49.138 0 67.882l45.334 45.334c18.714 18.714 49.044 18.75 67.802 0.080l309.492-308.042 309.49 308.042c18.758 18.67 49.088 18.634 67.802-0.080l45.334-45.334c18.746-18.746 18.746-49.138 0-67.882l-388.684-388.688c-18.746-18.744-49.138-18.744-67.884 0z" />
<glyph unicode="&#xe926;" glyph-name="chevron-left" horiz-adv-x="640" d="M69.040 481.94l388.7 388.68c18.74 18.74 49.14 18.74 67.88 0l45.34-45.34c18.72-18.72 18.74-49.040 0.080-67.8l-308.060-309.48 308.040-309.5c18.68-18.76 18.64-49.080-0.080-67.8l-45.34-45.34c-18.74-18.74-49.14-18.74-67.88 0l-388.68 388.7c-18.74 18.74-18.74 49.14 0 67.88z" />
<glyph unicode="&#xe927;" glyph-name="chevron-right" horiz-adv-x="640" d="M570.952 414.058l-388.688-388.686c-18.746-18.746-49.138-18.746-67.882 0l-45.334 45.334c-18.714 18.714-18.75 49.044-0.080 67.802l308.042 309.492-308.042 309.49c-18.67 18.758-18.634 49.088 0.080 67.802l45.334 45.334c18.746 18.746 49.138 18.746 67.882 0l388.686-388.686c18.746-18.744 18.746-49.136 0.002-67.882z" />
<glyph unicode="&#xe928;" glyph-name="menu" d="M963.765 809.411v-120.471h-903.529v120.471h903.529zM60.235 387.764h903.529v120.471h-903.529v-120.471zM60.235 86.588h903.529v120.471h-903.529v-120.471z" />
<glyph unicode="&#xe929;" glyph-name="close" d="M554.586 448l400.324-400.324-42.586-42.586-400.324 400.324-400.324-400.324-42.586 42.586 400.324 400.324-400.384 400.324 42.586 42.586 400.384-400.324 400.324 400.324 42.586-42.586-400.324-400.324z" />
<glyph unicode="&#xe92a;" glyph-name="envolope" d="M1023.445 727.979c0.981 6.144 0.171 12.459-2.475 18.261-8.064 35.456-33.664 53.717-76.971 53.717h-832c-38.101 0-79.104-13.995-99.285-41.472-1.749-1.323-3.413-2.816-4.907-4.565-6.443-7.424-8.704-17.024-7.253-26.027-0.299-2.603-0.555-5.205-0.555-7.936v-512c0-53.035 59.008-112 112-112h832c53.035 0 80 58.965 80 112v512c0 2.816-0.384 5.333-0.555 8.021zM112 736h832.427l-432.427-344.661-430.677 343.253c9.771 1.792 21.845 1.408 30.677 1.408zM944 160h-832c-17.664 0-48 30.336-48 48v458.453l427.051-341.632c6.016-5.205 13.483-7.808 20.949-7.808s14.933 2.603 20.992 7.808l427.008 341.632v-458.453c0-17.664 1.664-48-16-48z" />
<glyph unicode="&#xe92b;" glyph-name="options" d="M896.299 321.792h-27.179c-2.219 0.597-4.181 1.579-6.4 2.005-57.216 8.789-102.4 56.405-106.197 112.213-4.395 62.379 31.189 115.2 89.216 132.395 7.595 2.219 15.616 3.797 23.381 5.803h27.221c1.792-0.597 3.413-1.579 5.419-1.792 52.821-8.619 93.013-46.592 104.405-98.603 0.811-4.011 2.005-8.021 2.987-11.989v-27.221c-0.597-1.792-1.621-3.584-1.792-5.419-8.405-52.011-45.397-91.605-96.811-103.595-4.992-1.195-9.6-2.603-14.208-3.797zM127.488 574.208h27.221c2.219-0.597 4.181-1.579 6.4-1.792 57.6-9.003 102.613-56.789 106.197-113.195 4.011-62.208-32-114.816-90.197-131.797-7.381-2.219-15.019-3.797-22.4-5.589h-27.221c-1.792 0.597-3.413 1.621-5.205 2.005-52.011 9.6-86.016 39.808-102.187 90.197-2.219 6.613-3.413 13.611-5.205 20.395v27.179c0.597 1.792 1.579 3.584 1.792 5.419 8.619 52.181 45.397 91.605 96.811 103.595 4.821 1.195 9.387 2.389 13.995 3.584zM498.304 574.208h27.179c2.219-0.597 4.181-1.579 6.4-2.005 57.387-9.003 103.595-58.581 105.984-114.603 2.816-63.019-35.2-116.395-93.781-131.413-6.187-1.579-12.416-2.987-18.603-4.395h-27.179c-2.219 0.597-4.181 1.621-6.4 2.005-57.387 8.789-103.595 58.581-106.197 114.603-2.987 63.019 35.2 116.395 93.781 131.413 6.4 1.621 12.587 2.987 18.816 4.395z" />
<glyph unicode="&#xe92c;" glyph-name="layers" d="M22.187 658.048l474.752-258.56c4.779-2.603 10.027-3.883 15.317-3.883 5.205 0 10.411 1.28 15.189 3.84l479.787 258.56c10.453 5.632 16.981 16.597 16.811 28.501s-6.912 22.741-17.493 28.16l-474.795 241.109c-9.045 4.608-19.712 4.608-28.843 0.085l-479.701-241.109c-10.624-5.333-17.408-16.128-17.621-28.032s6.272-22.912 16.683-28.587zM517.163 891.392l405.888-206.123-410.709-221.312-405.888 221.013zM1001.003 479.659l-94.891 48.213-68.523-36.949 79.957-40.576-410.667-221.312-405.931 221.013 85.248 42.837-68.309 37.205-100.267-50.347c-10.624-5.333-17.408-16.128-17.621-28.032s6.272-22.912 16.683-28.587l474.752-258.56c4.779-2.603 10.027-3.883 15.317-3.883 5.205 0 10.411 1.28 15.189 3.84l479.787 258.56c10.453 5.632 16.981 16.597 16.811 28.501s-6.912 22.741-17.493 28.117zM1001.045 255.829l-89.899 44.203-68.523-36.949 74.965-36.608-410.709-221.312-405.931 221.013 79.275 35.84-68.309 37.205-94.251-43.392c-10.624-5.333-17.408-16.128-17.621-28.032s6.272-22.912 16.683-28.587l474.752-258.56c4.779-2.603 10.027-3.883 15.317-3.883 5.205 0 10.411 1.28 15.189 3.84l479.787 258.56c10.453 5.632 16.981 16.597 16.811 28.501-0.128 11.947-6.912 22.741-17.493 28.16z" />
<glyph unicode="&#xe92d;" glyph-name="menu-alt" d="M963.765 839.529v-120.471h-662.588v120.471h662.588zM301.176 417.882h662.588v120.471h-662.588v-120.471zM301.176 116.706h662.588v120.471h-662.588v-120.471zM120.471 839.529c-33.25 0-60.235-26.925-60.235-60.235s26.985-60.235 60.235-60.235 60.235 26.925 60.235 60.235-26.985 60.235-60.235 60.235zM120.471 538.353c-33.25 0-60.235-26.925-60.235-60.235s26.985-60.235 60.235-60.235 60.235 26.925 60.235 60.235-26.985 60.235-60.235 60.235zM120.471 237.176c-33.25 0-60.235-26.925-60.235-60.235s26.985-60.235 60.235-60.235 60.235 26.925 60.235 60.235-26.985 60.235-60.235 60.235z" />
<glyph unicode="&#xe92e;" glyph-name="logo" d="M776.754 421.472v-23.708h-75.642v23.708h75.642zM776.754 459.856v-23.708h-75.642v23.708h75.642zM1015.288 486.846c0.034-0.067 2.364 5.714 3.066 8.007h5.645c0-3.388 0-6.774 0-16.935h-3.388c-0.034 0.139-0.671 5.96-0.986 8.926 0.034-0.067-2.469-8.926-2.397-8.926h-3.388c0.034-0.034-3.348 9.031-3.388 9.031-0.458-2.823 0-0.034-1.13-9.031h-3.388c0 11.289 1.13 13.546 0 16.935h6.173c0.034-0.067 3.174-8.080 3.174-8.007zM1003.679 494.856l-0.015-4.477c0.041-0.054-4.464-0.041-4.497-0.038 0-3.388 0-7.903 0-12.417h-3.388c0 3.388-0.153 7.745-0.474 12.417 0.002-0.080-3.998-0.107-4.057 0l0.021 4.516h12.417zM776.754 497.113v-23.708h-75.642v23.708h75.642zM588.208 497.113l-50.803 1.13v-99.351h24.836v22.579h24.836c20.321 0 32.74 21.45 32.74 38.384 0 13.546-6.774 34.998-31.612 37.255zM583.692 473.405c5.645 0 9.031-10.16 9.031-12.417 0-6.774-4.516-14.678-11.289-14.678h-18.064v27.097h20.321zM424.502 497.113l-51.935 1.13v-99.351h25.967v22.579h24.836c20.321 0 31.612 21.45 31.612 38.384 0 14.678-4.516 31.612-30.483 37.255zM418.858 473.405c7.903-2.259 9.031-6.774 9.031-12.417 0-6.774-3.388-14.678-11.289-14.678h-16.935v27.097h19.193zM252.897 498.242h-24.836l-39.513-95.965v-3.388h25.967c2.259 4.516 4.516 10.16 6.774 14.678h38.384c2.259-4.516 4.516-10.16 6.774-14.678h27.097l-40.641 99.351zM249.51 437.279h-18.064c3.388 7.903 6.774 16.935 9.031 24.836l9.031-24.836zM25.966 498.242l28.226-60.969 29.354 60.969h24.836v-99.351h-25.967v44.031c0-0.376-18.254-40.641-18.064-40.641h-20.321c-0.185-0.376-17.877 40.077-18.064 40.267 0 0.139 0-43.657 0-43.657h-25.967v99.351h25.967zM938.2 470.018v-3.388h-24.836c-2.259 10.16-9.031 11.289-15.807 11.289-4.516 0-12.417-1.13-12.417-5.645 0-9.031 54.192-12.417 54.192-46.288 0-22.579-25.967-30.483-40.641-30.483-11.289 0-41.77 7.903-41.77 25.967v6.774h24.836c1.13-2.259 1.13-4.516 4.516-5.645 3.388-2.259 10.16-4.516 12.417-4.516 3.388 0 12.417 3.388 12.417 7.903 0 10.16-53.063 9.031-53.063 44.031 0 24.836 22.579 30.483 38.384 30.483 16.935 0 39.513-5.645 41.77-30.483z" />
<glyph unicode="&#xe92f;" glyph-name="home" d="M1015.125 446.635l-478.891 501.589c-6.016 6.272-14.336 9.813-22.997 9.813s-16.981-3.541-22.997-9.813l-481.323-501.589c-12.203-12.715-11.776-32.896 0.939-45.099s32.896-11.819 45.099 0.939l42.88 44.672v-477.355c0-17.621 14.293-31.915 31.915-31.915h222.848c17.579 0 31.829 14.208 31.915 31.787l1.024 318.677h254.208v-318.592c0-17.621 14.293-31.915 31.915-31.915h222.763c17.621 0 31.915 14.293 31.915 31.915v477.483l42.837-44.885c6.272-6.528 14.635-9.813 22.997-9.813 7.936 0 15.915 2.944 22.101 8.917 12.715 12.203 13.099 32.384 0.939 45.099zM862.421 505.003v-503.253h-158.976v318.549c0 17.621-14.293 31.915-31.915 31.915h-317.867c-17.579 0-31.829-14.208-31.915-31.787l-1.024-318.677h-159.147v503.253c0 2.645-0.427 5.163-1.024 7.595l352.64 367.488 350.336-367.061c-0.683-2.603-1.152-5.248-1.152-8.021z" />
<glyph unicode="&#xe930;" glyph-name="user-alt" d="M512 895.957c108.715 0 224.043-91.563 224.043-159.957v-160c0-61.568-25.6-179.413-94.293-233.515-17.493-13.781-26.624-35.712-23.979-57.856s16.597-41.344 36.864-50.645l278.656-132.139c2.176-0.981 26.709-5.12 26.709-39.381l0.043-62.507-895.957-0.043v64.981c0 25.472 19.115 33.451 26.752 36.949l281.173 132.693c20.181 9.259 34.091 28.331 36.779 50.347s-6.144 43.861-23.467 57.728c-66.517 53.419-97.493 170.795-97.493 233.301v160c0 66.901 116.48 159.957 224.256 159.915zM512 960c-141.397 0-288.256-118.016-288.256-223.957v-160c0-69.888 31.915-211.371 121.472-283.221l-281.173-132.693s-64-28.501-64-64v-96.085c0-35.371 28.672-64 64-64h896c35.371 0 64 28.629 64 64v96.085c0 37.632-64 64-64 64l-278.656 132.139c88.704 69.803 118.699 206.976 118.699 283.819v160c0 105.984-146.731 223.957-288.085 223.957v0z" />
<glyph unicode="&#xe931;" glyph-name="mappers-logo-sm" d="M962.56-64h-901.12c-33.932 0-61.44 27.508-61.44 61.44v0 901.12c0 33.932 27.508 61.44 61.44 61.44v0h901.12c33.932 0 61.44-27.508 61.44-61.44v0-901.12c0-33.932-27.508-61.44-61.44-61.44v0zM858.112 763.392h-167.936v-1.755l-175.503-387.365h-0.135l-178.665 388.506v0.614h-167.936v-632.832h167.936v267.958l112.64-244.929v-0.502h129.151l112.513 248.345v-270.873h167.936v632.832z" />
<glyph unicode="&#xe932;" glyph-name="mappers-logo-sm-alt" d="M102.4 960v0c-56.554 0-102.4-45.846-102.4-102.4v-819.2c0-56.554 45.846-102.4 102.4-102.4h819.2c56.554 0 102.4 45.846 102.4 102.4v819.2c0 56.554-45.846 102.4-102.4 102.4h-819.2zM245.76 775.68h532.48v-163.84h-532.48v163.84zM245.76 529.92h532.48v-163.84h-532.48v163.84zM245.76 284.16h532.48v-163.84h-532.48v163.84z" />
<glyph unicode="&#xe933;" glyph-name="remove-circular" d="M511.984-64c-282.318 0-511.984 229.699-511.984 512.016s229.666 511.984 511.984 511.984 511.984-229.666 511.984-511.984c0.033-282.318-229.666-512.016-511.984-512.016zM511.984 901.512c-250.041 0-453.463-203.455-453.463-453.496s203.422-453.463 453.463-453.463c250.041 0 453.463 203.422 453.463 453.463s-203.389 453.496-453.463 453.496zM713.856 418.773h-403.745c-16.155 0-29.244 13.056-29.244 29.244 0 16.155 13.122 29.277 29.244 29.277h403.745c16.155 0 29.244-13.122 29.244-29.277 0-16.188-13.056-29.244-29.244-29.244z" />
<glyph unicode="&#xe934;" glyph-name="add-circular" d="M511.984-64c-282.318 0-511.984 229.699-511.984 512.016s229.666 511.984 511.984 511.984c282.318 0 511.984-229.666 511.984-511.984 0.033-282.318-229.666-512.016-511.984-512.016zM511.984 901.512c-250.074 0-453.496-203.455-453.496-453.496s203.422-453.463 453.496-453.463c250.041 0 453.463 203.422 453.463 453.463s-203.422 453.496-453.463 453.496zM713.856 418.773h-403.745c-16.155 0-29.277 13.056-29.277 29.244 0 16.155 13.089 29.277 29.277 29.277h403.745c16.155 0 29.244-13.122 29.244-29.277 0-16.188-13.056-29.244-29.244-29.244zM511.984 216.9c-16.155 0-29.277 13.089-29.277 29.244v403.745c0 16.155 13.122 29.277 29.277 29.277s29.244-13.122 29.244-29.277v-403.745c0-16.188-13.056-29.244-29.244-29.244z" />
<glyph unicode="&#xe935;" glyph-name="info" d="M453.967 625.843c1.872-3.744 3.744-7.488 5.616-10.296s4.68-5.616 6.552-8.424c2.808-2.808 5.616-5.616 9.36-8.424 2.808-1.872 6.552-4.68 11.232-5.616 3.744-1.872 7.488-2.808 12.168-3.744s8.424-0.936 12.168-0.936c3.744 0 8.424 0 12.168 0.936s7.488 1.872 10.296 3.744h0.936c3.744 1.872 7.488 3.744 11.232 6.552 2.808 1.872 5.616 4.68 8.424 7.488l0.936 0.936c2.808 2.808 4.68 5.616 6.552 8.424s3.744 5.616 4.68 9.36c0 0.936 0 0.936 0.936 1.872 1.872 3.744 2.808 8.424 3.744 12.168s0.936 8.424 0.936 12.168 0 8.424-0.936 12.168-1.872 7.488-3.744 12.168c-2.808 6.552-6.552 12.168-11.232 16.848-0.936 0.936-0.936 0.936-1.872 1.872-2.808 2.808-5.616 4.68-9.36 7.488-3.744 1.872-6.552 3.744-10.296 5.616s-7.488 2.808-11.232 3.744c-4.68 0.936-8.424 0.936-12.168 0.936s-8.424 0-12.168-0.936c-3.744-0.936-7.488-1.872-11.232-3.744h-0.936c-3.744-1.872-7.488-3.744-10.296-5.616-3.744-2.808-6.552-4.68-9.36-7.488s-5.616-5.616-7.488-8.424c-1.872-2.808-3.744-6.552-5.616-10.296s-2.808-7.488-3.744-11.232c-0.936-4.68-0.936-8.424-0.936-12.168s0-8.424 0.936-12.168c0.936-7.488 2.808-11.232 3.744-14.976zM584.073 283.261h-21.528v229.324c0 13.104-10.296 24.336-24.336 24.336h-98.282c-13.104 0-24.336-10.296-24.336-24.336v-50.545c0-13.104 10.296-24.336 24.336-24.336h19.656v-155.378h-19.656c-13.104 0-24.336-10.296-24.336-24.336v-50.545c0-13.104 10.296-24.336 24.336-24.336h144.146c13.104 0 24.336 10.296 24.336 24.336v50.545c0 14.040-11.232 25.272-24.336 25.272zM512 960c-282.676 0-512-229.324-512-512s229.324-512 512-512 512 229.324 512 512-229.324 512-512 512zM512 3.393c-245.236 0-444.607 199.371-444.607 444.607s199.371 444.607 444.607 444.607 444.607-199.371 444.607-444.607-199.371-444.607-444.607-444.607z" />
<glyph unicode="&#xe936;" glyph-name="check-mark" d="M738.328 610.461c15.625-15.625 15.625-40.953 0-56.57l-268.344-268.352c-15.625-15.617-40.945-15.617-56.57 0l-127.742 127.75c-15.625 15.617-15.625 40.945 0 56.563 15.617 15.625 40.945 15.625 56.563 0l99.461-99.461 240.063 240.070c15.625 15.617 40.953 15.617 56.57 0zM1024 448c0-283.008-229.031-512-512-512-283.008 0-512 229.031-512 512 0 283.008 229.031 512 512 512 283.008 0 512-229.031 512-512zM944 448c0 238.789-193.242 432-432 432-238.789 0-432-193.242-432-432 0-238.789 193.242-432 432-432 238.789 0 432 193.242 432 432z" />
<glyph unicode="&#xe937;" glyph-name="network" d="M363.355 348.903c0 55.21-34.073 102.565-82.282 122.282 9.976 11.581 16.218 26.444 16.218 42.879v33.032c0 36.435-29.629 66.065-66.065 66.065s-66.065-29.629-66.065-66.065v-33.032c0-16.435 6.242-31.298 16.218-42.879-48.21-19.718-82.282-67.073-82.282-122.282v-33.032h264.258zM198.194 514.065v33.032c0 18.218 14.815 33.032 33.032 33.032s33.032-14.815 33.032-33.032v-33.032c0-18.218-14.815-33.032-33.032-33.032s-33.032 14.815-33.032 33.032zM132.129 348.903c0 54.653 44.444 99.097 99.097 99.097s99.097-44.444 99.097-99.097zM924.903 695.742c0 37.323-20.758 69.863-51.315 86.758 11.266 11.863 18.282 27.782 18.282 45.371 0 36.435-29.629 66.065-66.065 66.065s-66.065-29.629-66.065-66.065c0-17.589 7.016-33.508 18.282-45.371-30.556-16.895-51.315-49.435-51.315-86.758v-33.032h198.194zM792.774 827.871c0 18.218 14.815 33.032 33.032 33.032s33.032-14.815 33.032-33.032-14.815-33.032-33.032-33.032-33.032 14.815-33.032 33.032zM759.742 695.742c0 36.435 29.629 66.065 66.065 66.065s66.065-29.629 66.065-66.065zM873.589 154.887c11.266 11.863 18.282 27.782 18.282 45.371 0 36.435-29.629 66.065-66.065 66.065s-66.065-29.629-66.065-66.065c0-17.589 7.016-33.508 18.282-45.371-30.556-16.895-51.315-49.435-51.315-86.758v-33.032h198.194v33.032c0 37.323-20.758 69.863-51.315 86.758zM792.774 200.258c0 18.218 14.815 33.032 33.032 33.032s33.032-14.815 33.032-33.032-14.815-33.032-33.032-33.032-33.032 14.815-33.032 33.032zM759.742 68.129c0 36.435 29.629 66.065 66.065 66.065s66.065-29.629 66.065-66.065zM932.815 300.758c16.613 47.371 25.121 96.815 25.121 147.242 0 50.274-8.46 99.589-24.976 146.847 55.169 35.306 91.040 97.065 91.040 166.96 0 109.29-88.903 198.194-198.194 198.194-69.863 0-131.25-36.419-166.565-91.185-47.371 16.613-96.815 25.121-147.242 25.121-24.855 0-49.694-2.177-74.040-6.258-8.839 13.661-24.129 22.774-41.573 22.774-26.855 0-48.669-21.524-49.419-48.194-101.177-40.435-185.935-118.435-234.524-216.25-67.226-40.476-112.444-113.976-112.444-198.008 0-84.097 45.274-157.629 112.573-198.097 40.403-81.258 105.734-149.024 185.266-192.742-0.202-1.847-0.548-3.645-0.548-5.548 0-27.315 22.234-49.548 49.548-49.548 15.573 0 29.315 7.363 38.403 18.629 41.024-12.153 83.548-18.629 126.758-18.629 50.427 0 99.871 8.508 147.242 25.121 35.315-54.766 96.702-91.185 166.565-91.185 109.29 0 198.194 88.903 198.194 198.194 0 69.863-36.419 131.25-91.185 166.565zM924.903 448c0-44.927-7.629-88.935-21.887-131.29-23.734 10.097-49.823 15.677-77.21 15.677-58.315 0-111.992-25.056-149.702-68.774-2.234 0.742-4.476 1.419-6.823 1.831l-34.25 205.516c14.927 8.323 25.169 23.976 25.516 42.177l109.879 36.637c9.065-11.597 23.040-19.194 38.863-19.194 22.46 0 41.242 15.113 47.323 35.629 16.266 2.524 31.823 6.887 46.435 13.024 14.226-42.347 21.855-86.323 21.855-131.234zM660.645 200.258c-9.097 0-16.516 7.419-16.516 16.516s7.419 16.516 16.516 16.516 16.516-7.419 16.516-16.516-7.419-16.516-16.516-16.516zM611.097 497.548c-9.097 0-16.516 7.419-16.516 16.516s7.419 16.516 16.516 16.516 16.516-7.419 16.516-16.516-7.419-16.516-16.516-16.516zM792.774 580.129c0 9.097 7.419 16.516 16.516 16.516s16.516-7.419 16.516-16.516-7.419-16.516-16.516-16.516-16.516 7.419-16.516 16.516zM825.806 926.968c91.073 0 165.161-74.089 165.161-165.161 0-80.911-57.677-148.629-136.008-162.484-7.516 17.823-25.153 30.355-45.669 30.355-17.355 0-32.605-9-41.452-22.565-63.774 23.903-107.194 85.589-107.194 154.694 0 91.073 74.089 165.161 165.161 165.161zM643.355 839.185c-10.129-23.782-15.742-49.944-15.742-77.379 0-81.113 49.944-153.597 123.758-183.581l-101.411-33.806c-9.065 11.597-23.040 19.194-38.863 19.194-3.621 0-7.121-0.444-10.524-1.169l-165.685 267.653c5.694 7.105 9.395 15.71 10.484 25.21 65.823 10.669 134.315 5.218 197.984-16.121zM396.387 877.419c9.097 0 16.516-7.419 16.516-16.516s-7.419-16.516-16.516-16.516-16.516 7.419-16.516 16.516 7.419 16.516 16.516 16.516zM357.524 830.548c9.065-11.597 23.040-19.194 38.863-19.194 3.621 0 7.121 0.444 10.524 1.169l165.685-267.653c-0.927-1.161-1.952-2.234-2.758-3.476l-107.863 26.976c-2.444 25.073-23.371 44.79-49.073 44.79-6.032 0-11.742-1.242-17.097-3.218-43.355 44.016-102.46 69.282-164.581 69.282-23.5 0-46.177-3.581-67.565-10.121 46.113 72.185 114.419 129.25 193.863 161.444zM412.903 580.129c9.097 0 16.516-7.419 16.516-16.516s-7.419-16.516-16.516-16.516-16.516 7.419-16.516 16.516 7.419 16.516 16.516 16.516zM33.032 448c0 109.29 88.903 198.194 198.194 198.194 52.339 0 102.218-20.911 139.202-57.476-4.379-7.379-7.073-15.903-7.073-25.105 0-27.315 22.234-49.548 49.548-49.548 1.653 0 3.218 0.331 4.839 0.492 7.613-21.298 11.677-43.581 11.677-66.556 0-109.29-88.903-198.194-198.194-198.194s-198.194 88.903-198.194 198.194zM163.661 226.895c21.387-6.556 44.065-10.121 67.565-10.121 127.508 0 231.226 103.718 231.226 231.226 0 27.798-5.137 54.75-14.702 80.452 2.395 2.379 4.54 5 6.427 7.831l107.863-26.976c1.008-10.435 5.194-19.855 11.677-27.379l-218.089-381.661c-2.863 0.516-5.782 0.895-8.79 0.895-13.476 0-25.685-5.452-34.637-14.202-60.266 33.476-111.548 81.919-148.54 139.935zM346.839 35.097c-9.097 0-16.516 7.419-16.516 16.516s7.419 16.516 16.516 16.516 16.516-7.419 16.516-16.516-7.419-16.516-16.516-16.516zM396.355 51.895c-0.065 12.202-4.71 23.25-12.121 31.871l218.073 381.645c0.056-0.016 0.105 0 0.169-0.016l34.234-205.5c-15.194-8.468-25.613-24.524-25.613-43.121 0-16.677 8.355-31.411 21.024-40.379-2.992-13.806-4.508-27.952-4.508-42.202 0-27.387 5.597-53.492 15.694-77.242-79.774-26.71-166.734-28.379-246.952-5.056zM825.806-30.968c-91.073 0-165.161 74.089-165.161 165.161 0 11.315 1.532 22.444 3.798 33.411 25.516 1.984 45.75 23.137 45.75 49.169 0 9.847-2.96 18.976-7.927 26.694 31.363 35.556 75.581 55.887 123.54 55.887 91.073 0 165.161-74.089 165.161-165.161s-74.089-165.161-165.161-165.161zM776.258 464.516h33.032v-33.032h-33.032zM842.323 464.516h33.032v-33.032h-33.032zM710.194 464.516h33.032v-33.032h-33.032z" />
<glyph unicode="&#xe938;" glyph-name="users" d="M847.777 350.363c34.53 28.577 57.153 72.633 57.153 121.451 0 82.158-66.679 154.791-142.884 154.791s-142.884-72.633-142.884-154.791c0-48.819 22.623-92.874 57.153-121.451-15.479-5.953-29.767-11.907-44.056-20.242-45.247 53.581-104.781 95.256-173.842 115.498 52.391 36.912 89.302 100.019 89.302 169.079 0 108.353-89.302 202.419-190.512 202.419s-190.512-94.065-190.512-202.419c0-69.060 36.912-132.167 89.302-169.079-147.647-44.056-256-180.986-256-342.921 0-13.098 10.716-23.814 23.814-23.814h976.372c13.098 0 23.814 10.716 23.814 23.814 0 114.307-73.823 211.944-176.223 247.665zM666.791 471.814c0 50.009 41.674 107.163 95.256 107.163s95.256-57.153 95.256-107.163-41.674-107.163-95.256-107.163-95.256 57.153-95.256 107.163zM214.326 614.698c0 72.633 60.726 154.791 142.884 154.791s142.884-82.158 142.884-154.791-60.726-154.791-142.884-154.791-142.884 82.158-142.884 154.791zM48.819 126.512c11.907 159.553 146.456 285.767 308.391 285.767 163.126 0 296.484-126.214 308.391-285.767h-616.781zM713.228 126.512c-3.572 59.535-22.623 116.688-53.581 164.316 30.958 16.67 65.488 26.195 102.4 26.195 110.735 0 201.228-83.349 213.135-190.512h-261.953z" />
<glyph unicode="&#xe939;" glyph-name="pdf" d="M301.64 301.19c0 17.006-11.8 27.147-32.62 27.147-8.502 0-14.26-0.839-17.271-1.642v-54.562c3.566-0.803 7.95-1.070 13.992-1.070 22.192 0 35.9 11.212 35.9 30.127zM430.526 327.766c-9.324 0-15.349-0.805-18.913-1.64v-120.839c3.566-0.837 9.324-0.837 14.529-0.837 37.824-0.268 62.493 20.553 62.493 64.67 0.268 38.363-22.211 58.646-58.109 58.646zM669.99 960h-411.28c-60.084 0-108.986-48.936-108.986-108.986v-403.012h-10.645c-24.25 0-43.917-19.648-43.917-43.919v-266.341c0-24.269 19.665-43.915 43.917-43.915h10.645v-48.838c0-60.116 48.902-108.986 108.986-108.986h561.174c60.046 0 108.954 48.872 108.954 108.986v657.071l-258.848 257.941zM210.375 356.018c12.871 2.175 30.962 3.814 56.45 3.814 25.758 0 44.117-4.917 56.452-14.793 11.783-9.307 19.735-24.669 19.735-42.747 0-18.074-6.025-33.44-16.989-43.849-14.26-13.423-35.347-19.448-60.016-19.448-5.49 0-10.411 0.272-14.26 0.805v-66.044h-41.373v182.262zM819.884 2.747h-561.174c-23.265 0-42.21 18.945-42.21 42.242v48.838h523.129c24.255 0 43.919 19.646 43.919 43.915v266.341c0 24.272-19.665 43.919-43.919 43.919h-523.129v403.012c0 23.231 18.947 42.176 42.21 42.176l386.31 0.404v-142.794c0-41.708 33.842-75.582 75.582-75.582l139.882 0.401 1.574-630.628c0-23.299-18.911-42.244-42.174-42.244zM369.69 174.593v181.425c15.345 2.442 35.345 3.814 56.452 3.814 35.078 0 57.824-6.293 75.648-19.714 19.181-14.26 31.229-36.989 31.229-69.622 0-35.347-12.871-59.751-30.696-74.811-19.448-16.167-49.053-23.834-85.22-23.834-21.659 0-37.004 1.372-47.413 2.742zM668.788 282.007v-33.973h-66.328v-74.278h-41.925v184.704h112.905v-34.241h-70.98v-42.212h66.328z" />
<glyph unicode="&#xe93a;" glyph-name="linkedin-alt" d="M1024 337.332v-378.579h-219.476v353.224c0 88.733-31.745 149.29-111.188 149.29-60.645 0-96.735-40.811-112.612-80.288-5.79-14.113-7.28-33.757-7.28-53.512v-368.714h-219.55c0 0 2.957 598.246 0 660.229h219.529v-93.585c-0.445-0.7-1.024-1.455-1.443-2.133h1.443v2.133c29.167 44.922 81.255 109.095 197.845 109.095 144.447 0.002 252.733-94.363 252.733-297.16zM124.235 937.245c-75.108 0-124.235-49.265-124.235-114.050 0-63.373 47.705-114.133 121.321-114.133h1.467c76.562 0 124.177 50.75 124.177 114.133-1.443 64.785-47.615 114.050-122.73 114.050zM13.039-41.247h219.467v660.229h-219.467v-660.229z" />
<glyph unicode="&#xe93b;" glyph-name="group" d="M159.182 746.674c11.33-8.644 27.514-6.468 36.161 4.855 76.097 99.7 191.512 156.875 316.657 156.875s240.561-57.179 316.657-156.875c5.079-6.651 12.757-10.143 20.528-10.143 5.454 0 10.961 1.724 15.632 5.289 11.323 8.647 13.495 24.835 4.855 36.161-85.944 112.592-216.309 177.166-357.673 177.166s-271.729-64.574-357.669-177.166c-8.644-11.326-6.472-27.514 4.851-36.161zM786.229 609.061c0-44.425 36.147-80.572 80.572-80.572s80.572 36.147 80.572 80.572-36.147 80.572-80.572 80.572-80.572-36.143-80.572-80.572zM949.258 501.751c-0.186 0.062-20.487 6.292-20.487 6.292-7.351 2.245-15.336 0.862-21.49-3.744l-40.481-30.31-40.481 30.31c-6.158 4.61-14.146 5.992-21.49 3.744 0 0-20.301-6.23-20.487-6.292-32.665-10.892-54.61-41.339-54.61-75.769v-121.808c0-4.699 1.372-9.295 3.958-13.219l40.85-62.167v-163.261c0-13.298 10.778-24.076 24.076-24.076h136.371c13.298 0 24.076 10.778 24.076 24.076v163.261l40.85 62.167c2.582 3.927 3.958 8.523 3.958 13.219v121.808c0 34.43-21.949 64.877-54.613 75.769zM157.2 528.489c44.425 0 80.572 36.147 80.572 80.572s-36.147 80.572-80.572 80.572-80.575-36.143-80.575-80.572 36.147-80.572 80.575-80.572zM239.657 501.751c-0.186 0.062-20.487 6.292-20.487 6.292-7.354 2.245-15.332 0.862-21.49-3.744l-40.481-30.31-40.481 30.31c-6.154 4.61-14.146 5.992-21.49 3.744 0 0-20.301-6.23-20.487-6.292-32.665-10.892-54.61-41.339-54.61-75.769v-121.808c0-4.699 1.372-9.295 3.958-13.219l40.85-62.167v-163.261c0-13.298 10.778-24.076 24.076-24.076h136.368c13.298 0 24.076 10.778 24.076 24.076v163.261l40.85 62.167c2.582 3.927 3.958 8.523 3.958 13.219v121.808c0 34.43-21.949 64.877-54.61 75.769zM615.924 722.615c0 57.303-46.621 103.924-103.924 103.924s-103.924-46.621-103.924-103.924c0-57.306 46.621-103.924 103.924-103.924s103.924 46.618 103.924 103.924zM626.147 568.325l-0.172 0.055-29.662 9.102c-4.679 1.438-9.678-1.038-11.361-5.654l-62.371-171.132c-3.6-9.871-17.56-9.871-21.159 0l-62.371 171.132c-1.358 3.727-4.875 6.065-8.647 6.065-0.893 0-32.34-9.499-32.34-9.499-37.891-12.626-63.205-47.752-63.205-87.471v-181.031c0-1.796 0.528-3.555 1.514-5.058l65.081-99.035v-250.587c0-5.089 4.124-9.213 9.213-9.213h202.673c5.089 0 9.213 4.124 9.213 9.213v250.587l65.081 99.035c0.986 1.503 1.514 3.262 1.514 5.058v181.507c-0.003 39.546-25.417 74.614-62.998 86.926zM536.369 571.928c-2.576 2.807-6.344 4.22-10.157 4.22h-28.427c-3.81 0-7.578-1.414-10.157-4.22-3.989-4.348-4.568-10.626-1.738-15.532l15.195-22.907-7.113-60.009 14.008-37.264c1.365-3.748 6.665-3.748 8.033 0l14.008 37.264-7.113 60.009 15.195 22.907c2.834 4.906 2.255 11.185-1.734 15.532z" />
<glyph unicode="&#xe93c;" glyph-name="chats" d="M744.581 858.484h-686.919c-31.796 0-57.662-25.866-57.662-57.66v-412.113c0-31.794 25.866-57.662 57.662-57.662h44.542v-153.42c0-9.768 5.884-18.578 14.912-22.318 2.988-1.24 6.128-1.84 9.24-1.84 6.288 0 12.464 2.456 17.086 7.076l170.502 170.5h34.208c13.342 0 24.156 10.814 24.156 24.156 0 13.344-10.818 24.158-24.156 24.158 0 0-45.38-0.032-45.854-0.080-5.624-0.382-11.144-2.698-15.444-6.996l-136.338-136.338c0 0-0.042 120.784-0.12 121.41-1.090 12.332-11.434 22.004-24.048 22.004h-68.686c-5.156 0-9.348 4.194-9.348 9.348v412.115c0 5.156 4.194 9.348 9.348 9.348h686.919c5.156 0 9.348-4.194 9.348-9.348v-158.11c0-13.342 10.818-24.156 24.156-24.156s24.156 10.814 24.156 24.156v158.11c0 31.794-25.866 57.66-57.66 57.66zM966.34 563.015h-480.831c-31.794 0-57.662-25.866-57.662-57.662v-281.141c0-31.794 25.866-57.662 57.662-57.662h301.029l121.96-121.96c4.622-4.622 10.8-7.076 17.086-7.076 3.112 0 6.252 0.602 9.24 1.84 9.024 3.74 14.912 12.546 14.912 22.318v104.88h16.602c31.794 0 57.662 25.866 57.662 57.662v281.141c0.002 31.794-25.864 57.66-57.66 57.66zM975.69 224.213c0-5.154-4.194-9.348-9.348-9.348h-40.752c-12.712 0-23.108-9.824-24.062-22.294-0.062-0.528-0.102-72.58-0.102-72.58l-87.708 87.71c-0.092 0.092-0.188 0.178-0.28 0.27-0.344 0.336-0.67 0.628-0.978 0.89-4.252 3.728-9.806 6.006-15.902 6.006h-311.049c-5.156 0-9.348 4.194-9.348 9.348v281.141c0 5.156 4.194 9.348 9.348 9.348h480.833c5.154 0 9.348-4.194 9.348-9.348v-281.143zM725.929 388.939c-13.334 0-24.156-10.822-24.156-24.156s10.822-24.156 24.156-24.156c13.336 0 24.156 10.822 24.156 24.156s-10.822 24.156-24.156 24.156zM620.945 698.777c0 0-439.645 0-439.645 0-13.34 0-24.156-10.814-24.156-24.156s10.818-24.156 24.156-24.156h439.645c13.34 0 24.156 10.814 24.156 24.156s-10.816 24.156-24.156 24.156zM348.151 539.069h-166.85c-13.34 0-24.156-10.814-24.156-24.156s10.818-24.156 24.156-24.156h166.85c13.342 0 24.156 10.814 24.156 24.156s-10.816 24.156-24.156 24.156zM613.675 388.939c-13.332 0-24.156-10.822-24.156-24.156s10.824-24.156 24.156-24.156c13.336 0 24.156 10.822 24.156 24.156s-10.82 24.156-24.156 24.156zM838.16 388.939c-13.334 0-24.156-10.822-24.156-24.156s10.822-24.156 24.156-24.156c13.336 0 24.156 10.822 24.156 24.156s-10.822 24.156-24.156 24.156z" />
<glyph unicode="&#xe93d;" glyph-name="checked" d="M11.815 408.615c-7.877 7.877-11.815 19.692-11.815 27.569s3.938 19.692 11.815 27.569l55.138 55.138c15.754 15.754 39.385 15.754 55.138 0l3.938-3.938 216.615-232.369c7.877-7.877 19.692-7.877 27.569 0l527.754 547.446h3.938c15.754 15.754 39.385 15.754 55.138 0l55.138-55.138c15.754-15.754 15.754-39.385 0-55.138v0l-630.154-653.785c-7.877-7.877-15.754-11.815-27.569-11.815s-19.692 3.938-27.569 11.815l-307.2 330.831-7.877 11.815z" />
<glyph unicode="&#xe93e;" glyph-name="user-group" d="M617.94 730.971c47.347-29.686 80.548-79.921 86.592-138.233 19.309-9.022 40.74-14.211 63.462-14.211 82.95 0 150.182 67.232 150.182 150.169 0 82.95-67.232 150.182-150.182 150.182-82.158-0.026-148.801-66.056-150.054-147.907zM519.553 423.477c82.95 0 150.182 67.244 150.182 150.182s-67.244 150.169-150.182 150.169c-82.937 0-150.207-67.244-150.207-150.182s67.27-150.169 150.207-150.169zM583.257 413.24h-127.435c-106.029 0-192.289-86.273-192.289-192.302v-155.843l0.396-2.441 10.735-3.361c101.186-31.616 189.094-42.159 261.45-42.159 141.326 0 223.24 40.293 228.288 42.862l10.032 5.073h1.073v155.868c0.038 106.029-86.221 192.302-192.251 192.302zM831.724 568.278h-126.451c-1.367-50.593-22.964-96.151-57.123-128.917 94.247-28.025 163.204-115.422 163.204-218.653v-48.024c124.853 4.575 196.8 39.961 201.541 42.338l10.032 5.086h1.073v155.894c0 106.017-86.26 192.276-192.276 192.276zM256.032 578.502c29.379 0 56.714 8.575 79.87 23.182 7.361 48.012 33.098 89.966 69.864 118.54 0.153 2.811 0.422 5.597 0.422 8.434 0 82.95-67.244 150.182-150.156 150.182-82.963 0-150.182-67.232-150.182-150.182 0-82.912 67.219-150.156 150.182-150.156zM390.904 439.361c-33.993 32.6-55.513 77.915-57.085 128.201-4.69 0.345-9.329 0.716-14.108 0.716h-127.422c-106.029 0-192.289-86.26-192.289-192.276v-155.868l0.396-2.402 10.735-3.386c81.174-25.341 153.619-37.021 216.544-40.702v47.066c0.026 103.231 68.957 190.602 163.229 218.653z" />
<glyph unicode="&#xe93f;" glyph-name="group-alt" d="M511.161 454.472v0c0.21 0 0.419 0 0.839 0 0.21 0 0.419 0 0.839 0v0c134.395 1.468 114.896 180.94 114.896 180.94-5.451 119.928-105.88 118.88-115.735 118.46-9.854 0.419-110.074 1.468-115.735-118.46 0-0.21-19.499-179.682 114.896-180.94zM825.658 393.25v0c0.21 0 0.419 0 0.629 0s0.419 0 0.629 0v0c107.977 1.048 92.462 145.507 92.462 145.507-4.403 96.446-85.124 95.607-93.091 95.397-7.967 0.419-88.688 1.048-93.091-95.397 0-0.21-15.725-144.459 92.462-145.507zM1023.79 246.905c-0.839 31.030-6.919 52.626-38.578 72.544-42.143 26.418-89.317 49.271-89.317 49.271l-37.53-118.67-21.805 62.27c38.369 53.674-2.726 56.4-10.064 56.4v0h-0.419c-7.338 0-48.432-2.726-10.064-56.4l-21.805-62.061-37.53 118.67c0 0-13.419-6.5-32.288-16.563-4.403 3.564-9.225 7.129-14.676 10.483-52.416 32.917-110.912 61.432-110.912 61.432l-46.545-147.394-27.256 77.366c47.803 66.673-3.355 70.028-12.58 70.238v0h-0.419c-9.225 0-60.383-3.355-12.58-70.238l-27.256-77.366-46.545 147.394c0 0-58.496-28.514-110.912-61.432-5.661-3.564-10.483-7.129-14.886-10.693-19.079 10.274-32.708 16.773-32.708 16.773l-37.53-118.67-21.805 62.061c38.369 53.674-2.726 56.4-10.064 56.4v0h-0.419c-7.338 0-48.432-2.726-10.064-56.4l-21.805-62.061-37.53 118.67c0 0-47.174-22.853-89.317-49.271-31.869-19.918-37.74-41.514-38.578-72.544v-105.042h1024l-0.21 104.832zM196.246 393.25v0c0.21 0 0.419 0 0.629 0s0.419 0 0.629 0v0c108.187 1.048 92.462 145.507 92.462 145.507-4.403 96.446-85.124 95.607-93.091 95.397-7.967 0.419-88.688 1.048-93.091-95.397 0-0.21-15.515-144.459 92.462-145.507z" />
<glyph unicode="&#xe940;" glyph-name="eye" d="M1006.407 470.243c-2.067 2.618-51.683 64.859-136.744 127.351-113.666 83.51-237.345 127.652-357.666 127.652-120.317 0-243.996-44.141-357.666-127.652-85.059-62.49-134.675-124.733-136.744-127.351l-17.586-22.242 17.588-22.244c2.069-2.618 51.685-64.862 136.744-127.354 113.67-83.508 237.35-127.649 357.666-127.649 120.319 0 243.998 44.141 357.664 127.649 85.062 62.492 134.677 124.735 136.744 127.354l17.593 22.244-17.593 22.242zM511.997 253.775c-107.095 0-194.226 87.128-194.226 194.226 0 16.779 2.139 33.067 6.158 48.609l-44.343 7.463c-4.344-17.99-6.649-36.766-6.649-56.072 0-69.179 29.55-131.579 76.675-175.272-60.663 22.408-112.247 53.852-151.178 82.291-48.233 35.228-84.38 70.858-104.988 92.981 20.617 22.13 56.76 57.755 104.988 92.981 38.932 28.438 90.518 59.883 151.178 82.293l29.747-33.531c34.742 32.532 81.401 52.483 132.637 52.483 107.095 0 194.224-87.128 194.224-194.226s-87.128-194.226-194.224-194.226zM825.56 355.020c-38.936-28.438-90.518-59.883-151.178-82.291 47.123 43.691 76.673 106.091 76.673 175.274s-29.55 131.581-76.673 175.274c60.663-22.41 112.242-53.855 151.178-82.293 48.233-35.228 84.38-70.858 104.988-92.979-20.617-22.135-56.76-57.762-104.988-92.986zM388.4 485.756c-3.645-11.946-5.62-24.618-5.62-37.757 0-71.362 57.852-129.216 129.216-129.216 71.362 0 129.214 57.852 129.214 129.216s-57.852 129.216-129.214 129.216c-34.76 0-66.289-13.751-89.516-36.078l63.736-71.842-97.817 16.461z" />
<glyph unicode="&#xe941;" glyph-name="news-feed" d="M396.163 181.575h-233.991c-12.795 0-23.167-10.372-23.167-23.167s10.372-23.167 23.167-23.167h233.991c12.795 0 23.167 10.372 23.167 23.167s-10.372 23.167-23.167 23.167zM745.991 181.575h-233.991c-12.795 0-23.167-10.372-23.167-23.167s10.372-23.167 23.167-23.167h233.991c12.793 0 23.167 10.372 23.167 23.167s-10.374 23.167-23.167 23.167zM745.991 760.76h-583.819c-12.795 0-23.167-10.372-23.167-23.167s10.372-23.167 23.167-23.167h583.819c12.793 0 23.167 10.372 23.167 23.167s-10.374 23.167-23.167 23.167zM745.991 644.923h-233.991c-12.795 0-23.167-10.372-23.167-23.167s10.372-23.167 23.167-23.167h233.991c12.793 0 23.167 10.372 23.167 23.167s-10.374 23.167-23.167 23.167zM745.991 529.086h-233.991c-12.795 0-23.167-10.372-23.167-23.167s10.372-23.167 23.167-23.167h233.991c12.793 0 23.167 10.372 23.167 23.167s-10.374 23.167-23.167 23.167zM745.991 413.249h-233.991c-12.795 0-23.167-10.372-23.167-23.167s10.372-23.167 23.167-23.167h233.991c12.793 0 23.167 10.372 23.167 23.167s-10.374 23.167-23.167 23.167zM745.991 297.412h-233.991c-12.795 0-23.167-10.372-23.167-23.167s10.372-23.167 23.167-23.167h233.991c12.793 0 23.167 10.372 23.167 23.167s-10.374 23.167-23.167 23.167zM396.163 297.412h-233.991c-12.795 0-23.167-10.372-23.167-23.167s10.372-23.167 23.167-23.167h233.991c12.795 0 23.167 10.372 23.167 23.167s-10.372 23.167-23.167 23.167zM396.163 644.923h-233.991c-12.795 0-23.167-10.372-23.167-23.167v-233.991c0-12.795 10.372-23.167 23.167-23.167h233.991c12.795 0 23.167 10.372 23.167 23.167v233.991c0 12.795-10.372 23.167-23.167 23.167zM372.995 410.932h-187.656v187.656h187.656v-187.656zM977.665 783.928h-69.502v69.502c0 25.549-20.786 46.335-46.335 46.335h-815.493c-25.549 0-46.335-20.786-46.335-46.335v-741.357c0-63.873 51.965-115.837 115.837-115.837h792.326c63.873 0 115.837 51.965 115.837 115.837v625.52c0 25.549-20.786 46.335-46.335 46.335zM977.665 112.072c0-38.324-31.179-69.502-69.502-69.502h-792.326c-38.324 0-69.502 31.179-69.502 69.502v741.357h815.493v-706.606c0-31.936 25.982-57.919 57.919-57.919 12.793 0 23.167 10.372 23.167 23.167s-10.374 23.167-23.167 23.167c-6.387 0-11.584 5.196-11.584 11.584v590.769h69.502v-625.52z" />
</font>
</defs>
</svg>
